<?xml version="1.0" standalone="no"?>
<!DOCTYPE svg PUBLIC "-//W3C//DTD SVG 20010904//EN"
 "http://www.w3.org/TR/2001/REC-SVG-20010904/DTD/svg10.dtd">
<svg version="1.0" xmlns="http://www.w3.org/2000/svg"
 width="4004.000000pt" height="1659.000000pt" viewBox="0 0 4004.000000 1659.000000"
 preserveAspectRatio="xMidYMid meet">

<g transform="translate(0.000000,1659.000000) scale(0.100000,-0.100000)"
fill="#000000" stroke="none">
<path d="M7390 14463 c604 -462 947 -1214 1035 -2268 27 -330 8 -828 -46
-1210 -86 -612 -206 -981 -599 -1850 -263 -580 -337 -758 -435 -1047 -107
-313 -169 -587 -200 -881 -57 -550 -43 -1006 46 -1464 142 -731 486 -1362
1092 -2002 413 -436 887 -806 1510 -1180 l138 -83 82 32 c692 275 1306 653
1852 1141 823 736 1438 1688 1760 2726 140 448 226 908 265 1403 9 116 6 834
-3 880 -3 14 -8 63 -12 110 -36 488 -181 1119 -374 1627 -155 407 -379 851
-609 1202 -1031 1576 -2689 2620 -4546 2861 -83 10 -187 22 -231 25 -44 4 -93
9 -110 11 -16 3 -176 8 -355 11 l-325 5 65 -49z m3068 -1423 c17 0 52 -60 52
-90 0 -80 -68 -178 -138 -201 -55 -17 -62 -27 -62 -78 0 -37 8 -61 36 -107 86
-139 127 -273 147 -473 l11 -114 -23 -16 c-13 -9 -37 -28 -53 -44 l-30 -27 7
-154 c8 -158 1 -210 -31 -237 -11 -9 -72 -13 -212 -14 -126 -2 -219 -7 -257
-16 l-60 -14 1 -70 c2 -77 28 -195 80 -352 19 -56 34 -104 34 -108 0 -3 -20
-3 -45 1 -53 7 -54 15 13 -114 36 -70 47 -84 72 -89 36 -7 43 -15 64 -77 21
-64 21 -87 1 -60 -14 18 -14 17 -5 -8 13 -38 -1 -70 -41 -96 -37 -23 -54 -20
-39 8 30 56 0 170 -90 349 l-58 116 -87 44 c-47 24 -88 42 -89 40 -2 -2 -18
-69 -35 -147 l-31 -144 25 -30 c14 -16 25 -39 25 -51 -1 -27 -28 -137 -29
-117 -1 9 -11 3 -28 -17 -19 -21 -40 -33 -65 -36 -21 -3 -38 -4 -38 -2 0 2 11
16 25 30 16 18 29 52 39 98 9 40 33 152 54 251 l39 178 -28 29 c-16 17 -29 35
-29 40 0 14 116 403 132 442 14 36 29 43 108 51 214 23 427 76 487 122 27 20
33 32 33 62 0 64 -8 68 -86 42 -108 -36 -180 -46 -261 -37 -70 9 -73 10 -73
35 0 25 1 25 14 6 13 -17 27 -19 118 -19 127 1 251 36 256 72 3 19 -44 118
-113 242 -14 24 -25 52 -25 61 0 9 18 54 41 101 54 111 79 211 79 317 0 76 -2
83 -17 76 -10 -4 -31 -8 -47 -8 -25 -1 -33 6 -53 44 -23 44 -24 54 -9 145 2
11 4 35 5 52 3 75 95 126 216 118 33 -2 66 -4 73 -5z m-614 -1116 c9 -8 16
-28 16 -44 0 -16 7 -30 15 -34 8 -3 15 -12 15 -20 0 -25 -42 -46 -93 -46 -62
0 -127 47 -127 91 0 37 11 64 20 50 5 -8 15 -7 36 4 38 19 98 19 118 -1z m19
-165 c-16 -16 -86 -23 -130 -13 -34 8 -30 9 47 14 47 4 87 7 90 8 2 1 -1 -3
-7 -9z m3 -1559 c282 -9 481 -20 624 -35 25 -2 72 -7 105 -10 33 -3 76 -8 95
-10 19 -3 55 -7 80 -10 691 -84 1212 -257 1294 -429 20 -42 21 -98 2 -134 -24
-45 -89 -101 -166 -141 -58 -31 -69 -40 -53 -45 18 -6 22 -23 37 -164 9 -86
16 -174 16 -195 0 -42 -4 -40 130 -82 363 -116 675 -426 842 -838 96 -237 139
-462 139 -727 0 -229 -30 -420 -98 -614 -165 -476 -497 -812 -910 -923 -87
-24 -116 -27 -263 -27 -148 0 -175 3 -260 27 l-95 27 -20 -27 c-11 -15 -54
-72 -95 -127 -132 -179 -318 -350 -510 -469 -504 -311 -1288 -355 -1870 -104
-614 264 -1031 831 -1265 1720 l-35 134 15 115 c58 444 187 839 490 1498 318
692 458 1045 560 1410 21 74 41 138 44 142 9 10 294 30 541 37 124 3 243 7
266 9 22 1 184 -2 360 -8z"/>
<path d="M10314 12550 c3 -14 10 -65 16 -115 6 -49 13 -101 15 -115 2 -14 14
-104 25 -200 12 -96 24 -178 28 -182 4 -4 24 4 45 17 44 30 45 39 21 207 -22
163 -77 318 -139 393 -16 20 -16 20 -11 -5z"/>
<path d="M9601 10604 c0 -11 3 -14 6 -6 3 7 2 16 -1 19 -3 4 -6 -2 -5 -13z"/>
<path d="M9718 11861 c7 -40 31 -61 69 -61 29 0 36 5 48 33 7 17 11 35 7 38
-4 4 -34 9 -68 11 -60 4 -60 4 -56 -21z"/>
<path d="M11930 8077 c0 -597 -82 -1091 -256 -1539 -10 -26 -15 -51 -10 -55 4
-4 60 -8 124 -8 101 0 127 4 190 27 329 119 543 465 544 878 1 422 -212 780
-541 909 l-51 21 0 -233z"/>
<path d="M6910 14484 c-784 -77 -1515 -290 -2215 -644 -752 -380 -1407 -899
-1942 -1540 -820 -981 -1301 -2168 -1402 -3460 -15 -190 -7 -885 13 -1055 79
-696 223 -1254 476 -1845 594 -1392 1713 -2559 3090 -3223 710 -343 1447 -545
2255 -618 157 -15 782 -18 970 -6 396 25 852 103 1245 213 143 40 342 103 352
113 4 3 -48 39 -115 80 -139 84 -412 265 -533 353 l-81 58 -219 -50 c-284 -66
-416 -87 -638 -102 -235 -16 -730 -15 -921 1 -1033 87 -1990 417 -2825 974
-652 435 -1190 972 -1619 1614 -141 212 -248 398 -366 638 -310 630 -490 1285
-545 1990 -10 131 -15 708 -6 737 3 7 7 56 10 108 3 52 15 163 25 245 257
1969 1610 3658 3526 4400 437 169 978 300 1450 350 33 3 105 15 160 25 55 10
142 24 194 30 104 12 366 14 468 4 l67 -7 -80 103 c-97 128 -241 274 -354 362
-116 90 -247 168 -279 167 -14 -1 -87 -8 -161 -15z"/>
<path d="M7340 13803 c-93 -8 -225 -26 -243 -32 -17 -7 -13 -13 37 -56 115
-100 246 -275 335 -448 127 -249 213 -546 256 -882 9 -71 18 -143 21 -160 3
-16 7 -167 9 -335 5 -407 -18 -673 -91 -1042 -81 -415 -194 -731 -495 -1389
-270 -592 -337 -751 -443 -1069 -135 -404 -233 -847 -261 -1180 -3 -41 -8 -88
-10 -105 -14 -104 -25 -489 -20 -645 42 -1221 396 -2139 1183 -3070 53 -63
195 -215 315 -336 l218 -222 62 4 c112 8 240 26 357 49 109 23 315 70 352 81
13 4 -16 32 -107 105 -686 546 -1228 1212 -1511 1854 -175 397 -258 737 -320
1310 -10 93 -12 499 -3 640 30 492 116 911 284 1375 79 218 143 371 291 693
349 759 478 1093 578 1497 114 462 169 927 165 1415 -2 258 -8 367 -35 595
-36 308 -120 650 -224 915 -50 127 -183 397 -205 415 -24 20 -357 35 -495 23z"/>
<path d="M5436 12973 c-68 -25 -91 -59 -90 -131 0 -65 18 -105 75 -173 l38
-47 -9 -58 c-6 -33 -10 -60 -10 -61 0 -1 -22 -27 -49 -58 -65 -74 -75 -114
-68 -268 6 -129 64 -506 96 -635 33 -128 72 -162 207 -181 116 -17 130 -18
254 -31 58 -6 108 -14 112 -18 4 -4 -41 -166 -99 -360 -97 -325 -104 -354 -89
-370 11 -13 14 -29 9 -55 -7 -45 9 -67 48 -67 15 0 44 -9 63 -21 26 -15 48
-19 87 -17 29 2 54 8 56 13 2 6 -17 21 -41 33 -24 13 -56 37 -72 53 l-27 29
36 -2 c21 -1 39 1 42 3 2 3 16 89 30 191 37 274 48 339 56 331 3 -5 9 -39 13
-78 7 -90 35 -362 40 -395 3 -14 5 -38 5 -53 1 -18 8 -30 22 -35 11 -4 26 -19
33 -32 9 -19 19 -24 41 -22 16 2 46 -4 66 -14 30 -13 48 -15 86 -8 55 11 65
35 18 44 -39 8 -66 23 -90 51 -12 13 -16 23 -9 26 6 2 19 10 29 17 18 13 18
16 -2 92 -12 44 -25 106 -28 139 -4 33 -23 130 -41 215 -66 299 -103 409 -152
453 -30 27 -138 53 -345 83 -111 16 -188 31 -197 40 -27 26 -39 124 -39 324
l-1 195 26 -60 c14 -33 36 -89 49 -124 14 -35 34 -75 47 -88 28 -30 152 -69
248 -78 51 -4 82 -12 95 -25 53 -47 112 -53 150 -16 21 21 26 23 33 9 8 -14
10 -14 15 1 4 9 -1 19 -10 24 -9 5 -19 27 -22 48 l-6 39 -53 3 c-48 3 -58 -1
-104 -34 l-52 -37 -92 15 c-111 19 -204 58 -204 87 0 11 -4 22 -9 25 -5 3 -16
29 -26 58 l-17 52 26 23 c32 27 33 57 5 166 -27 106 -29 109 -117 199 l-75 77
11 39 c7 22 12 48 12 58 0 42 13 47 74 29 32 -9 69 -14 82 -11 29 8 49 49 57
113 4 42 -14 191 -28 225 -20 50 -134 71 -219 41z m721 -1187 c11 -11 -8 -56
-28 -67 -40 -21 -99 11 -99 54 0 20 4 22 61 20 33 -1 63 -4 66 -7z"/>
<path d="M16022 12015 c-781 -90 -1251 -524 -1393 -1285 l-24 -125 -3 -1375
c-3 -999 0 -1404 8 -1480 97 -871 606 -1367 1480 -1440 95 -8 638 -10 1855 -8
1667 3 1722 4 1770 22 68 27 137 98 161 167 18 50 19 88 19 484 0 395 -2 434
-19 484 -24 71 -85 131 -162 162 l-59 24 -1365 6 c-1363 5 -1365 5 -1455 27
-355 87 -589 232 -678 419 l-32 68 0 1001 0 1000 37 76 c82 164 282 299 568
381 202 58 162 57 1560 58 758 0 1310 4 1345 10 87 14 162 55 202 110 61 85
64 120 61 581 -3 405 -4 414 -26 470 -27 67 -89 127 -160 155 -45 17 -129 18
-1812 19 -1392 2 -1789 -1 -1878 -11z"/>
<path d="M20850 12014 c-103 -28 -163 -84 -197 -184 -17 -53 -18 -140 -18
-2050 0 -2194 -3 -2069 60 -2320 145 -577 505 -945 1067 -1090 262 -67 208
-65 1618 -65 1257 0 1372 2 1527 29 661 117 1083 509 1233 1147 57 242 54 124
57 2259 3 1398 1 1984 -7 2031 -13 77 -56 158 -102 192 -18 13 -55 33 -83 43
-47 18 -85 19 -570 19 -484 0 -524 -1 -574 -19 -73 -25 -140 -92 -166 -166
-20 -54 -20 -96 -25 -1905 l-5 -1850 -24 -70 c-63 -190 -196 -310 -386 -350
-103 -22 -1576 -22 -1679 0 -212 45 -357 192 -401 406 -13 64 -15 323 -17
1894 l-3 1820 -24 59 c-29 73 -91 137 -157 162 -45 17 -87 19 -559 21 -426 2
-519 0 -565 -13z"/>
<path d="M27320 12016 c-135 -39 -194 -104 -219 -241 -17 -92 -15 -5149 2
-5231 27 -127 97 -201 217 -228 103 -24 968 -23 1071 0 123 28 195 108 218
240 7 39 11 322 11 795 l0 734 1163 0 c1223 0 1231 0 1457 46 144 29 272 73
415 144 453 224 719 637 789 1227 17 141 21 915 6 1068 -86 851 -586 1356
-1429 1445 -190 21 -3631 21 -3701 1z m3295 -1360 c177 -66 277 -184 310 -367
16 -91 13 -409 -5 -489 -31 -137 -115 -252 -227 -308 -122 -62 -117 -62 -1143
-62 l-930 0 0 628 0 627 972 -5 c918 -5 976 -6 1023 -24z"/>
<path d="M34454 12019 c-424 -33 -767 -143 -1006 -323 -193 -146 -340 -365
-409 -610 -54 -195 -61 -272 -65 -741 -4 -457 2 -570 36 -742 77 -380 259
-642 573 -826 189 -110 492 -198 767 -222 41 -4 86 -9 100 -13 14 -3 531 -8
1150 -11 1006 -6 1129 -8 1166 -23 119 -47 176 -97 221 -193 27 -58 28 -65 28
-225 0 -164 0 -166 -31 -230 -17 -36 -46 -80 -65 -99 -42 -42 -136 -88 -209
-101 -35 -6 -672 -11 -1725 -12 l-1670 -3 -53 -22 c-81 -33 -117 -66 -154
-140 l-33 -68 0 -435 c0 -401 1 -439 19 -489 24 -69 93 -140 161 -167 49 -18
102 -19 1865 -21 999 -1 1867 2 1930 7 958 75 1427 485 1490 1302 12 158 11
723 -2 893 -52 704 -444 1115 -1186 1245 -247 44 -424 50 -1487 50 -1089 0
-1082 0 -1186 57 -67 36 -129 107 -154 174 -17 46 -20 79 -20 214 0 154 1 162
28 220 34 73 86 128 149 161 109 55 39 53 1808 56 1583 3 1637 4 1688 22 71
26 134 83 163 148 l24 53 0 455 c0 440 -1 456 -21 500 -28 60 -77 108 -144
139 l-55 26 -1795 1 c-987 1 -1841 -2 -1896 -7z"/>
<path d="M5345 10234 c-948 -44 -1605 -181 -1856 -386 -9 -7 -28 -31 -43 -52
-68 -101 -1 -214 180 -306 38 -19 51 -30 37 -30 -26 0 -28 -10 -48 -238 -7
-90 -15 -165 -17 -167 -2 -1 -31 -10 -65 -19 -231 -58 -453 -200 -619 -394
-575 -674 -521 -1819 115 -2424 249 -237 540 -351 856 -335 62 3 147 16 195
28 l85 22 20 -29 c255 -355 468 -544 785 -698 350 -171 854 -234 1280 -160
133 23 133 23 125 42 -3 9 -22 78 -40 152 -77 308 -121 583 -152 960 -15 174
-8 769 10 960 10 96 19 189 21 205 62 452 140 781 286 1208 87 255 185 492
370 897 169 370 290 645 290 659 0 14 -405 63 -730 87 -198 14 -906 26 -1085
18z m-1757 -2061 c4 -356 37 -675 103 -990 40 -195 116 -440 183 -594 l15 -37
-31 -6 c-86 -17 -245 5 -343 49 -120 53 -248 162 -327 279 -239 351 -245 847
-14 1195 52 78 172 196 241 236 42 25 151 74 166 75 3 0 6 -93 7 -207z"/>
<path d="M14638 5836 c-94 -25 -153 -86 -183 -189 -14 -47 -15 -113 -13 -473
3 -413 3 -420 26 -469 49 -106 133 -155 265 -155 220 0 307 111 307 392 l0 99
-97 -3 -98 -3 -5 -126 c-6 -142 -14 -162 -74 -173 -48 -9 -92 10 -110 49 -22
47 -24 767 -2 820 17 41 42 55 96 55 31 0 47 -6 65 -26 22 -24 25 -36 27 -128
l3 -101 99 -3 99 -3 -6 108 c-7 144 -26 203 -85 262 -73 73 -195 99 -314 67z"/>
<path d="M17425 5844 c-140 -36 -206 -120 -221 -282 -8 -79 12 -168 54 -246
16 -30 81 -104 163 -186 112 -111 138 -144 152 -184 19 -56 22 -122 7 -161
-15 -38 -73 -60 -122 -46 -51 16 -68 51 -68 141 l0 70 -95 0 -95 0 0 -82 c0
-156 57 -256 168 -298 76 -29 215 -25 278 7 148 77 194 295 103 483 -25 52
-59 92 -163 195 -153 152 -176 190 -176 289 0 58 3 70 25 91 24 25 81 34 120
19 25 -10 45 -59 45 -114 l0 -50 96 0 97 0 -5 78 c-11 178 -102 271 -273 278
-38 2 -79 1 -90 -2z"/>
<path d="M23187 5840 c-91 -23 -151 -72 -189 -155 -23 -49 -23 -56 -26 -464
-3 -391 -2 -417 17 -480 23 -76 64 -126 131 -162 40 -21 58 -24 155 -24 103 0
113 2 163 30 66 36 106 92 128 174 13 51 15 126 12 468 -3 402 -3 409 -26 459
-45 100 -130 153 -255 159 -40 3 -89 0 -110 -5z m150 -195 c11 -8 26 -28 31
-45 15 -41 16 -738 2 -790 -18 -67 -81 -97 -143 -69 -51 23 -52 27 -55 419 -2
201 0 385 3 409 9 61 42 91 97 91 24 0 53 -7 65 -15z"/>
<path d="M27339 5837 c-66 -19 -109 -47 -146 -95 -55 -73 -57 -83 -60 -520 -3
-340 -2 -412 12 -463 18 -73 56 -128 110 -164 57 -37 108 -48 205 -43 144 7
226 69 265 200 14 49 16 111 13 470 -3 407 -3 414 -26 464 -45 99 -130 153
-255 160 -42 2 -91 -1 -118 -9z m173 -207 c27 -33 29 -82 26 -470 -3 -392 -4
-396 -55 -419 -69 -31 -136 10 -148 90 -3 24 -5 206 -3 404 3 324 5 364 21
388 32 49 121 53 159 7z"/>
<path d="M28057 5840 c-59 -15 -91 -36 -135 -85 -71 -80 -74 -106 -70 -585 l3
-415 28 -57 c50 -102 132 -148 262 -148 140 0 215 41 267 148 l33 67 3 252 4
253 -146 0 -146 0 0 -90 0 -90 45 0 45 0 0 -149 c0 -144 -1 -151 -24 -178 -20
-23 -32 -28 -70 -28 -36 0 -51 6 -73 28 l-28 27 -3 378 c-2 207 0 392 3 411
10 51 45 81 98 81 29 0 53 -7 68 -19 22 -17 24 -29 29 -128 l5 -108 99 -3 99
-3 -5 113 c-9 181 -50 259 -163 309 -56 25 -167 34 -228 19z"/>
<path d="M30155 5841 c-92 -22 -162 -87 -191 -175 -22 -65 -23 -193 -1 -266
24 -81 67 -140 199 -269 139 -136 168 -183 168 -277 0 -98 -52 -141 -136 -114
-46 15 -64 56 -64 145 l0 65 -96 0 -96 0 4 -97 c7 -156 58 -243 165 -283 61
-23 173 -27 238 -9 127 36 200 163 190 334 -8 133 -54 212 -220 373 -132 128
-165 181 -165 270 0 57 19 106 45 116 9 3 32 6 50 6 18 0 41 -3 50 -6 25 -10
45 -59 45 -114 l0 -50 100 0 101 0 -6 63 c-16 159 -76 248 -191 280 -62 17
-136 20 -189 8z"/>
<path d="M30833 5840 c-54 -11 -80 -25 -121 -64 -105 -98 -120 -300 -34 -460
16 -30 79 -103 158 -181 74 -74 138 -147 149 -170 23 -48 31 -140 16 -178 -16
-41 -73 -63 -123 -48 -51 16 -68 51 -68 141 l0 70 -95 0 -95 0 0 -84 c0 -142
48 -238 144 -289 35 -19 57 -22 151 -22 94 0 116 3 151 22 148 79 194 295 103
483 -25 52 -59 92 -163 195 -153 151 -176 189 -176 290 0 57 3 69 25 90 24 25
81 34 120 19 25 -10 45 -59 45 -114 l0 -50 96 0 97 0 -5 78 c-5 87 -34 165
-76 205 -61 59 -196 89 -299 67z"/>
<path d="M33518 5837 c-50 -14 -63 -23 -116 -71 -61 -56 -94 -197 -73 -311 21
-113 61 -175 206 -319 150 -149 175 -190 175 -282 0 -70 -16 -98 -65 -114 -26
-9 -44 -9 -70 0 -48 16 -65 52 -65 140 l0 70 -96 0 -96 0 4 -97 c10 -216 110
-311 317 -301 96 5 146 24 199 79 60 61 93 202 72 309 -21 110 -62 174 -200
311 -162 159 -185 202 -181 332 1 42 42 77 90 77 22 0 47 -3 56 -6 25 -10 45
-59 45 -114 l0 -50 95 0 95 0 0 65 c0 76 -29 162 -71 210 -60 68 -212 102
-321 72z"/>
<path d="M37567 5836 c-75 -21 -127 -63 -162 -131 l-30 -59 0 -445 0 -446 24
-52 c49 -110 142 -158 290 -151 133 7 210 57 253 167 20 51 22 79 26 304 l4
247 -146 0 -146 0 0 -90 0 -90 45 0 45 0 1 -112 c1 -163 0 -180 -20 -207 -25
-35 -65 -46 -113 -32 -68 21 -69 25 -66 477 l3 396 28 24 c45 38 132 31 153
-13 4 -10 11 -63 14 -118 l5 -100 95 0 95 0 0 100 c-1 174 -48 268 -157 315
-65 28 -173 35 -241 16z"/>
<path d="M15152 5198 l3 -633 265 0 265 0 0 90 0 90 -162 3 -163 2 0 540 0
540 -105 0 -105 0 2 -632z"/>
<path d="M15760 5318 c0 -560 2 -584 58 -663 53 -75 126 -108 242 -108 116 0
190 33 242 108 55 80 58 111 58 667 l0 508 -95 0 -94 0 -3 -517 c-3 -558 -2
-548 -55 -572 -30 -14 -66 -14 -96 0 -53 24 -52 14 -55 572 l-3 517 -99 0
-100 0 0 -512z"/>
<path d="M16490 5194 l0 -636 208 4 c192 3 211 5 260 27 66 30 114 85 137 156
13 44 16 83 13 193 -4 172 -25 227 -107 284 l-23 16 41 41 c57 57 74 122 69
265 -3 96 -7 118 -31 163 -54 104 -110 123 -374 123 l-193 0 0 -636z m345 446
c36 -14 55 -65 55 -147 0 -137 -28 -173 -134 -173 -66 0 -62 -10 -58 193 l3
137 54 0 c29 0 65 -4 80 -10z m35 -538 c34 -35 43 -85 39 -210 -4 -79 -7 -94
-28 -116 -22 -24 -32 -26 -103 -26 l-78 0 0 190 0 190 71 0 c64 0 73 -3 99
-28z"/>
<path d="M18180 5313 c0 -585 1 -598 71 -677 55 -62 122 -89 224 -89 130 1
209 40 257 129 45 83 48 134 48 662 l-1 492 -99 0 -99 0 -1 -517 c0 -487 -1
-519 -19 -543 -42 -57 -133 -51 -163 10 -16 32 -18 79 -18 543 l0 507 -100 0
-100 0 0 -517z"/>
<path d="M18910 5195 l0 -635 90 0 90 0 2 447 3 446 120 -444 120 -444 103 -3
102 -3 0 636 0 635 -90 0 -90 0 -2 -359 -3 -359 -96 356 -96 357 -126 3 -127
3 0 -636z"/>
<path d="M19682 5198 l3 -633 100 0 100 0 3 633 2 632 -105 0 -105 0 2 -632z"/>
<path d="M19970 5740 l0 -90 105 0 105 0 0 -545 0 -545 100 0 100 0 0 545 0
545 105 0 105 0 0 90 0 90 -310 0 -310 0 0 -90z"/>
<path d="M20672 5198 l3 -633 273 -3 272 -2 0 95 0 95 -170 0 -170 0 0 180 0
180 119 0 c66 0 126 3 135 6 13 5 16 23 16 95 l0 89 -135 0 -135 0 0 175 0
175 170 0 170 0 0 90 0 90 -275 0 -275 0 2 -632z"/>
<path d="M21340 5195 l0 -637 208 3 c204 4 208 4 265 32 39 20 66 42 87 72 55
80 60 121 60 527 0 441 -8 497 -87 569 -64 61 -79 64 -315 67 l-218 3 0 -636z
m363 444 c14 -6 30 -22 36 -36 7 -16 11 -149 11 -412 0 -456 6 -432 -102 -441
-35 -3 -71 -4 -81 -2 -15 3 -17 40 -19 449 -2 244 -1 447 1 449 9 9 131 3 154
-7z"/>
<path d="M22360 5195 l0 -636 103 3 102 3 3 258 2 257 28 1 c15 0 70 1 122 2
l95 2 3 93 3 92 -126 0 -125 0 0 190 0 190 160 0 160 0 0 90 0 90 -265 0 -265
0 0 -635z"/>
<path d="M23703 5198 l2 -633 103 -3 102 -3 0 261 0 260 45 0 c61 0 110 -22
128 -57 11 -21 16 -80 19 -228 3 -110 8 -208 13 -217 6 -16 22 -18 111 -18
l103 0 -9 28 c-5 15 -11 117 -13 227 -5 237 -14 273 -84 335 -25 22 -41 40
-35 40 22 0 81 73 96 119 36 107 28 318 -14 401 -51 99 -116 120 -377 120
l-193 0 3 -632z m364 428 l28 -24 0 -141 c0 -138 0 -141 -26 -167 -22 -21 -39
-27 -93 -31 l-66 -6 0 197 0 196 64 0 c54 0 70 -4 93 -24z"/>
<path d="M24811 5493 c-29 -186 -61 -387 -71 -448 -10 -60 -30 -184 -44 -275
-15 -91 -29 -175 -31 -187 -5 -23 -4 -23 89 -23 l94 0 18 115 18 115 121 0
121 0 13 -92 c21 -153 8 -138 122 -138 82 0 99 3 99 15 0 16 -187 1195 -195
1233 -5 22 -8 22 -153 22 l-148 0 -53 -337z m262 -365 l24 -158 -94 0 -94 0 6
33 c3 17 23 153 45 300 22 148 40 272 41 275 1 8 36 -209 72 -450z"/>
<path d="M25735 5808 c-3 -13 -4 -297 -3 -633 l3 -610 103 -3 102 -3 0 241 0
240 78 0 c146 0 236 49 283 152 23 50 24 64 24 243 0 177 -2 193 -23 240 -28
60 -64 100 -117 128 -37 20 -58 22 -242 25 l-202 3 -6 -23z m360 -182 c16 -16
25 -40 30 -81 10 -76 1 -255 -13 -281 -15 -28 -61 -44 -123 -44 l-49 0 0 215
0 215 65 0 c56 0 70 -4 90 -24z"/>
<path d="M26420 5196 l0 -636 100 0 100 0 0 261 0 262 66 -6 c119 -9 133 -42
134 -299 0 -92 4 -178 10 -192 9 -26 11 -26 111 -26 93 0 100 1 93 18 -4 9
-11 114 -14 232 -8 245 -15 276 -77 336 l-42 41 31 23 c16 12 42 48 57 79 24
52 26 65 26 201 0 161 -9 201 -58 256 -63 73 -87 79 -324 82 l-213 3 0 -635z
m343 443 c38 -17 47 -50 47 -180 0 -170 -21 -199 -141 -199 l-49 0 0 195 0
195 60 0 c32 0 70 -5 83 -11z"/>
<path d="M28570 5195 l0 -636 103 3 102 3 3 258 2 257 45 0 c25 0 61 -7 81
-15 56 -23 64 -56 64 -257 0 -95 5 -190 11 -210 l10 -38 98 0 98 0 -3 88 c-2
48 -6 146 -8 217 -5 173 -18 218 -75 275 l-46 46 33 28 c63 55 76 94 80 252 5
174 -9 235 -67 293 -62 62 -104 71 -333 71 l-198 0 0 -635z m352 444 c34 -18
48 -70 48 -181 0 -156 -29 -198 -137 -198 l-53 0 0 195 0 195 61 0 c33 0 69
-5 81 -11z"/>
<path d="M29300 5195 l0 -635 275 0 275 0 0 95 0 95 -170 0 -170 0 0 180 0
179 133 3 132 3 3 93 3 92 -136 0 -135 0 0 175 0 175 170 0 170 0 0 90 0 90
-275 0 -275 0 0 -635z"/>
<path d="M31330 5195 l0 -635 100 0 100 0 0 635 0 635 -100 0 -100 0 0 -635z"/>
<path d="M31622 5803 c2 -15 47 -301 98 -636 l94 -608 150 3 151 3 17 110 c10
61 25 157 34 215 8 58 19 130 24 160 5 30 13 84 18 120 6 36 31 197 56 359 25
162 46 296 46 298 0 1 -42 3 -93 3 l-93 0 -23 -157 c-13 -87 -35 -241 -51
-343 -15 -102 -38 -258 -51 -347 -13 -89 -24 -161 -25 -160 -2 2 -61 396 -118
787 l-31 215 -104 3 -103 3 4 -28z"/>
<path d="M32400 5195 l0 -635 275 0 276 0 -3 93 -3 92 -172 3 -173 2 0 180 0
180 123 1 c67 1 129 2 137 3 12 1 15 18 15 91 l0 90 -137 3 -138 3 0 174 0
175 175 0 175 0 0 90 0 90 -275 0 -275 0 0 -635z"/>
<path d="M33970 5740 l0 -90 105 0 105 0 0 -545 0 -545 100 0 100 0 0 545 0
545 105 0 105 0 0 90 0 90 -310 0 -310 0 0 -90z"/>
<path d="M34670 5195 l0 -636 103 3 102 3 3 258 2 257 45 0 c25 0 61 -7 81
-15 56 -23 64 -56 64 -257 0 -95 5 -190 11 -210 l10 -38 101 0 100 0 -7 38
c-4 20 -10 129 -14 242 -8 229 -17 262 -85 316 l-33 27 34 30 c65 57 77 95 81
254 5 175 -9 234 -68 293 -60 60 -108 70 -337 70 l-193 0 0 -635z m345 445
c40 -15 55 -64 55 -180 0 -123 -14 -164 -64 -185 -20 -8 -56 -15 -81 -15 l-45
0 0 195 0 195 54 0 c30 0 66 -4 81 -10z"/>
<path d="M35550 5825 c0 -2 -14 -89 -30 -192 -17 -104 -35 -215 -40 -248 -5
-33 -36 -229 -69 -435 -34 -206 -61 -379 -61 -383 0 -4 42 -6 93 -5 l92 3 13
90 c22 152 4 135 142 135 66 0 120 -1 121 -2 0 -2 8 -52 17 -113 l17 -110 104
-3 104 -3 -7 33 c-4 18 -20 119 -36 223 -16 105 -59 373 -95 597 -36 224 -65
410 -65 413 0 3 -67 5 -150 5 -82 0 -150 -2 -150 -5z m158 -347 c6 -46 25
-174 42 -286 16 -111 30 -207 30 -212 0 -12 -180 -14 -180 -2 -1 26 85 582 90
582 4 0 11 -37 18 -82z"/>
<path d="M36010 5740 l0 -90 105 0 105 0 0 -545 0 -546 103 3 102 3 2 540 2
540 101 3 100 3 0 89 0 90 -310 0 -310 0 0 -90z"/>
<path d="M36720 5195 l0 -635 270 0 270 0 0 95 0 95 -170 0 -170 0 0 180 0
180 119 0 c66 0 126 3 135 6 13 5 16 23 16 95 l0 89 -135 0 -135 0 0 175 0
175 170 0 170 0 0 90 0 90 -270 0 -270 0 0 -635z"/>
<path d="M38004 5812 c4 -10 60 -200 126 -422 l120 -403 0 -214 0 -213 100 0
100 0 0 205 0 205 125 421 c69 232 125 425 125 430 0 5 -42 9 -94 9 l-94 0
-21 -77 c-11 -43 -45 -170 -75 -283 -30 -113 -56 -198 -59 -190 -4 8 -37 134
-75 280 l-69 265 -107 3 c-101 3 -107 2 -102 -16z"/>
</g>
</svg>
