<?xml version="1.0" standalone="no"?>
<!DOCTYPE svg PUBLIC "-//W3C//DTD SVG 20010904//EN"
 "http://www.w3.org/TR/2001/REC-SVG-20010904/DTD/svg10.dtd">
<svg version="1.0" xmlns="http://www.w3.org/2000/svg"
 width="960.000000pt" height="960.000000pt" viewBox="0 0 960.000000 960.000000"
 preserveAspectRatio="xMidYMid meet">

<g transform="translate(0.000000,960.000000) scale(0.100000,-0.100000)"
fill="#000000" stroke="none">
<path d="M4560 9202 c0 -4 31 -31 69 -60 37 -28 101 -87 142 -129 296 -311
468 -721 546 -1298 22 -166 25 -682 5 -850 -62 -510 -151 -821 -380 -1330 -27
-60 -89 -198 -137 -305 -251 -558 -338 -835 -387 -1235 -17 -136 -17 -691 0
-815 60 -444 195 -811 425 -1155 287 -429 688 -816 1192 -1152 156 -104 354
-223 371 -223 41 0 404 166 589 269 169 94 439 275 589 395 813 649 1363 1548
1561 2548 79 402 103 866 64 1263 -130 1352 -861 2563 -2004 3320 -637 422
-1319 664 -2085 740 -169 16 -560 28 -560 17z m2234 -1058 c24 -23 20 -94 -6
-134 -13 -19 -45 -45 -72 -58 -47 -24 -48 -25 -43 -62 3 -21 21 -65 40 -97 45
-73 72 -161 87 -286 l13 -98 -40 -37 -41 -37 5 -120 c7 -165 12 -160 -159
-161 -73 0 -157 -6 -187 -13 l-54 -13 6 -67 c4 -36 21 -113 38 -171 17 -58 34
-113 37 -124 4 -16 1 -17 -27 -11 -17 3 -31 3 -31 -2 1 -26 69 -129 94 -143
17 -9 35 -30 42 -50 15 -43 17 -63 5 -56 -5 4 -7 -2 -4 -12 3 -13 -6 -28 -27
-46 -38 -31 -46 -29 -29 8 16 35 -7 118 -65 234 -42 85 -46 88 -105 116 -33
16 -62 28 -64 25 -2 -2 -13 -48 -25 -102 l-22 -98 21 -28 c17 -24 19 -34 11
-63 -14 -50 -50 -88 -84 -88 -28 0 -28 0 -9 19 11 11 24 45 30 78 6 32 23 108
36 168 27 120 30 145 15 145 -5 0 -14 8 -19 18 -7 14 2 59 38 175 26 86 53
163 60 171 6 8 41 17 79 21 103 10 252 44 302 69 35 17 46 29 48 50 6 51 -2
57 -50 40 -24 -8 -63 -19 -88 -24 -54 -10 -152 0 -157 17 -3 9 5 9 34 1 74
-20 243 15 243 52 0 15 -30 78 -86 182 -14 26 -13 32 20 105 41 92 55 148 56
221 l0 53 -33 -6 c-30 -6 -34 -4 -50 31 -14 28 -17 50 -12 93 9 81 13 90 48
112 41 25 158 27 181 3z m-463 -774 c10 -6 19 -17 19 -25 0 -9 6 -24 13 -36
10 -17 9 -22 -7 -35 -49 -36 -136 2 -136 58 0 17 3 29 6 25 3 -3 20 1 37 8 39
17 43 18 68 5z m-24 -136 c-3 -3 -12 -4 -19 -1 -8 3 -5 6 6 6 11 1 17 -2 13
-5z m249 -1104 c544 -31 977 -112 1211 -226 146 -72 191 -140 148 -224 -16
-30 -84 -82 -130 -100 -21 -8 -25 -13 -16 -24 6 -7 18 -73 25 -146 8 -73 18
-136 23 -140 4 -4 30 -13 57 -19 126 -31 262 -114 381 -235 161 -162 260 -358
316 -623 16 -73 21 -137 22 -253 1 -175 -15 -276 -65 -430 -113 -347 -361
-600 -663 -675 -98 -25 -268 -23 -358 3 -50 15 -71 17 -78 8 -5 -6 -32 -42
-60 -81 -196 -268 -453 -435 -784 -511 -45 -10 -142 -17 -275 -21 -181 -5
-220 -3 -334 17 -198 33 -360 96 -521 201 -114 74 -303 267 -389 397 -121 183
-241 465 -301 705 -25 101 -26 113 -15 195 44 340 127 582 415 1207 155 338
296 707 346 908 8 35 17 49 33 52 93 21 736 31 1012 15z"/>
<path d="M6675 7798 c3 -7 16 -105 30 -217 14 -112 27 -206 30 -209 2 -3 16 3
31 13 26 17 27 19 21 99 -4 44 -14 110 -23 146 -18 72 -69 180 -84 180 -5 0
-7 -6 -5 -12z"/>
<path d="M6250 7320 c0 -44 73 -59 86 -18 7 24 8 24 -43 31 -37 4 -43 3 -43
-13z"/>
<path d="M7827 4582 c-13 -407 -60 -703 -152 -958 -20 -55 -38 -106 -41 -115
-8 -24 75 -34 157 -19 372 67 571 565 388 968 -70 154 -185 269 -323 322 l-23
8 -6 -206z"/>
<path d="M4246 9184 c-1016 -101 -1963 -545 -2675 -1255 -832 -830 -1281
-1909 -1281 -3079 0 -628 125 -1219 382 -1800 499 -1129 1484 -2033 2659
-2438 461 -159 885 -236 1379 -249 501 -13 968 51 1455 199 55 17 104 34 108
38 4 4 -25 26 -65 50 -72 43 -320 206 -408 268 l-46 33 -149 -35 c-242 -56
-317 -66 -573 -78 -848 -41 -1661 161 -2384 593 -301 180 -535 364 -809 638
-223 224 -346 372 -507 612 -310 464 -528 1016 -610 1544 -39 249 -47 349 -47
610 0 265 10 398 46 620 200 1214 994 2276 2126 2843 404 203 861 344 1286
397 67 9 176 25 242 37 93 17 161 22 302 22 101 1 183 4 183 8 0 16 -123 159
-197 229 -72 69 -234 188 -273 200 -8 3 -73 0 -144 -7z"/>
<path d="M4446 8689 c-32 -5 -61 -10 -63 -13 -2 -2 30 -38 71 -80 153 -156
261 -368 331 -646 96 -377 97 -897 5 -1352 -63 -311 -135 -509 -376 -1041
-166 -365 -227 -514 -295 -717 -84 -252 -136 -480 -176 -765 -26 -188 -26
-805 0 -980 32 -214 67 -382 112 -538 171 -589 504 -1106 1041 -1619 l49 -46
115 14 c105 12 416 77 428 89 3 3 3 6 1 8 -294 217 -642 568 -849 857 -320
446 -481 879 -531 1430 -15 166 -6 567 16 730 52 388 159 724 387 1220 304
658 404 948 472 1363 47 283 59 454 53 757 -10 499 -84 849 -251 1184 -71 141
-71 141 -111 148 -55 10 -357 7 -429 -3z"/>
<path d="M3193 8106 c-75 -34 -71 -136 9 -223 28 -30 17 -91 -27 -143 -48 -58
-59 -99 -52 -199 7 -98 49 -366 72 -456 27 -105 56 -118 312 -141 39 -4 77
-10 84 -15 10 -6 -3 -62 -60 -253 -49 -164 -71 -251 -66 -263 5 -10 9 -31 9
-47 1 -31 7 -36 81 -60 46 -14 96 -13 95 3 -1 3 -22 20 -48 36 -41 26 -44 30
-24 33 31 5 39 27 56 167 25 194 28 215 37 215 5 0 9 -15 9 -32 0 -18 7 -105
17 -193 16 -150 19 -162 44 -187 15 -16 37 -28 48 -28 11 0 31 -5 44 -11 25
-11 92 0 92 17 0 5 -12 11 -27 14 -47 9 -92 60 -53 60 17 0 19 27 5 66 -6 15
-15 61 -21 103 -11 83 -60 296 -85 376 -36 112 -53 120 -289 155 -76 11 -141
22 -145 25 -18 11 -30 104 -30 232 l1 138 38 -93 c22 -52 48 -100 58 -107 24
-18 132 -45 179 -45 24 0 46 -8 66 -25 35 -30 49 -31 91 -7 18 9 33 18 35 19
2 0 -1 9 -7 20 -5 10 -12 26 -15 36 -8 26 -69 22 -115 -9 -37 -24 -42 -25
-102 -14 -109 20 -134 35 -158 92 -26 63 -26 72 0 89 20 14 20 15 3 89 -21 96
-26 106 -87 161 l-50 46 9 54 c10 58 4 56 84 43 42 -7 58 7 67 60 9 54 -6 163
-26 187 -23 28 -111 36 -158 15z m527 -856 c0 -26 -43 -44 -71 -30 -10 6 -19
20 -19 30 0 17 7 20 45 20 39 0 45 -3 45 -20z"/>
<path d="M2870 6145 c-543 -43 -948 -147 -1063 -274 -66 -73 -43 -142 68 -213
42 -27 62 -45 56 -52 -5 -6 -12 -56 -15 -111 -12 -183 -6 -169 -94 -194 -323
-93 -578 -399 -667 -801 -26 -118 -31 -371 -10 -505 43 -275 167 -522 349
-691 220 -206 472 -280 745 -218 52 12 66 12 72 2 32 -56 144 -190 222 -265
224 -214 469 -326 797 -364 165 -19 499 1 533 31 5 4 -5 63 -22 131 -76 306
-111 614 -111 968 1 508 67 907 229 1383 72 210 126 338 326 778 58 128 145
328 145 334 0 13 -308 50 -544 65 -212 15 -810 12 -1016 -4z m-980 -1437 c0
-381 72 -811 181 -1086 16 -41 27 -77 24 -80 -3 -3 -40 -5 -83 -5 -233 2 -439
191 -514 472 -28 106 -28 286 1 394 47 177 166 337 301 404 36 18 71 33 78 33
9 0 12 -33 12 -132z"/>
</g>
</svg>
